<?xml version="1.0" standalone="no"?><!DOCTYPE svg PUBLIC "-//W3C//DTD SVG 1.1//EN" "http://www.w3.org/Graphics/SVG/1.1/DTD/svg11.dtd"><svg t="1524227465498" class="icon" style="" viewBox="0 0 1024 1024" version="1.1" xmlns="http://www.w3.org/2000/svg" p-id="26392" xmlns:xlink="http://www.w3.org/1999/xlink" width="200" height="200"><defs><style type="text/css"></style></defs><path d="M940.4537 280.298917 543.702538 280.298917 543.702538 174.972057c-1.763157-14.051017-8.772804-22.826891-24.574698-24.576745l-416.0763 0c-14.038738 1.749854-22.813588 8.748245-24.576745 24.576745l0 251.031337c1.763157 15.800871 8.775874 24.578792 24.576745 26.354228l63.201437 0 79.002308 89.49836c4.92108 5.606695 12.287861 7.054673 19.313881 8.804527 14.051017-1.750877 22.826891-10.525728 24.561395-26.352181l0-71.951729 71.992661 0 0 191.355189c1.763157 19.301602 14.035668 31.574113 33.349549 35.100426l300.197106 0 0 101.831246c3.51301 19.299555 14.048971 29.825282 33.363875 33.352619 8.774851-1.749854 17.550725-5.27719 26.326599-12.30321L859.700515 678.812213l80.753185 0c19.313881-3.523243 29.851888-15.797801 33.363875-35.100426L973.817576 313.650513C972.040093 294.349935 959.767582 283.826254 940.4537 280.298917zM182.737416 306.920228c-19.169595-4.757351-31.155581-16.743336-35.960003-35.913954 2.402723-21.595854 14.363126-31.160697 35.960003-33.536814l256.396531 0c21.549805 2.376117 31.132044 14.364149 33.536814 33.536814-2.405793 21.545712-14.367219 33.532721-33.538861 35.913954L182.737416 306.920228zM738.462267 488.066915 476.840734 488.066915c-19.550265-4.874007-31.79003-17.09433-36.681434-36.666084 2.453888-22.004153 14.676257-31.78696 36.681434-34.224476l261.621533 0c22.007223 2.437515 31.773657 14.652721 34.228569 34.224476C770.235924 473.408053 758.013555 485.629399 738.462267 488.066915zM863.154173 488.066915c-22.00927-2.437515-31.795147-14.656815-34.233686-36.666084 2.438539-9.784854 4.876054-17.133216 9.785877-24.441669 17.113773-12.260232 31.773657-12.260232 48.888454 0 7.327896 7.308453 9.784854 17.09433 9.784854 24.441669C894.923738 473.408053 882.705462 485.629399 863.154173 488.066915z" p-id="26393" fill="#ffffff"></path></svg>