<?xml version="1.0" standalone="no"?><!DOCTYPE svg PUBLIC "-//W3C//DTD SVG 1.1//EN" "http://www.w3.org/Graphics/SVG/1.1/DTD/svg11.dtd"><svg t="1524227424010" class="icon" style="" viewBox="0 0 1027 1024" version="1.1" xmlns="http://www.w3.org/2000/svg" p-id="24233" xmlns:xlink="http://www.w3.org/1999/xlink" width="200.5859375" height="200"><defs><style type="text/css"></style></defs><path d="M718.222222 846.222222h-469.333333a14.222222 14.222222 0 0 1 0-28.444444h469.333333a14.222222 14.222222 0 0 1 0 28.444444zM497.777778 739.555556H184.888889a28.444444 28.444444 0 0 1-28.444445-28.444445V256a28.444444 28.444444 0 0 1 28.444445-28.444444h611.555555a28.444444 28.444444 0 0 1 28.444445 28.444444v199.111111h-28.444445V256H184.888889v455.111111h312.888889z" fill="#ffffff" p-id="24234"></path><path d="M497.777778 504.888889H263.111111a14.222222 14.222222 0 0 1 0-28.444445H497.777778a14.222222 14.222222 0 0 1 0 28.444445zM604.444444 405.333333h-341.333333a14.222222 14.222222 0 0 1 0-28.444444h341.333333a14.222222 14.222222 0 0 1 0 28.444444zM462.222222 604.444444h-199.111111a14.222222 14.222222 0 0 1 0-28.444444h199.111111a14.222222 14.222222 0 0 1 0 28.444444zM714.993778 675.413333l42.140444-42.126222 136.760889 136.775111-42.126222 42.126222z" fill="#ffffff" p-id="24235"></path><path d="M662.328889 706.417778a125.724444 125.724444 0 1 1 89.031111-36.835556 125.44 125.44 0 0 1-89.031111 36.835556z m0-223.146667a97.28 97.28 0 1 0 68.835555 28.444445A97.137778 97.137778 0 0 0 662.328889 483.555556z" fill="#ffffff" p-id="24236"></path></svg>