<?xml version="1.0" standalone="no"?><!DOCTYPE svg PUBLIC "-//W3C//DTD SVG 1.1//EN" "http://www.w3.org/Graphics/SVG/1.1/DTD/svg11.dtd"><svg t="1524227493415" class="icon" style="" viewBox="0 0 1024 1024" version="1.1" xmlns="http://www.w3.org/2000/svg" p-id="27073" xmlns:xlink="http://www.w3.org/1999/xlink" width="200" height="200"><defs><style type="text/css"></style></defs><path d="M853.333 568.889h113.778v56.889H853.333v-56.89z m56.89-455.111h56.888v455.11h-56.889v-455.11zM568.888 398.222h113.778V512H568.889V398.222zM199.11 56.89h768v56.889H227.556v56.889h-56.89V56.889h28.445z m199.111 341.333H512V512H398.222V398.222z m-170.666 0h113.777V512H227.556V398.222z m159.288 341.334L170.667 910.222V739.556H56.889v-568.89h796.444v568.89H386.844z m-22.755-56.89h432.355v-455.11H113.778v455.11h113.778v108.09l136.533-108.09z" fill="#ffffff" p-id="27074"></path></svg>