<?xml version="1.0" standalone="no"?><!DOCTYPE svg PUBLIC "-//W3C//DTD SVG 1.1//EN" "http://www.w3.org/Graphics/SVG/1.1/DTD/svg11.dtd"><svg t="1524227244265" class="icon" style="" viewBox="0 0 1024 1024" version="1.1" xmlns="http://www.w3.org/2000/svg" p-id="15512" xmlns:xlink="http://www.w3.org/1999/xlink" width="200" height="200"><defs><style type="text/css"></style></defs><path d="M350.72 519.68c-117.76 0-215.04-94.72-215.04-209.92S230.4 97.28 350.72 97.28c117.76 0 215.04 94.72 215.04 209.92S468.48 519.68 350.72 519.68zM350.72 148.48c-89.6 0-163.84 71.68-163.84 158.72s74.24 158.72 163.84 158.72 163.84-71.68 163.84-158.72S440.32 148.48 350.72 148.48z" p-id="15513" fill="#ffffff"></path><path d="M673.28 916.48c-15.36 0-25.6-10.24-25.6-25.6 0-161.28-133.12-291.84-299.52-291.84S51.2 729.6 51.2 890.88c0 15.36-10.24 25.6-25.6 25.6s-25.6-10.24-25.6-25.6c0-189.44 156.16-343.04 350.72-343.04s350.72 153.6 350.72 343.04C698.88 906.24 688.64 916.48 673.28 916.48z" p-id="15514" fill="#ffffff"></path><path d="M985.6 307.2 660.48 307.2c-15.36 0-25.6-10.24-25.6-25.6s10.24-25.6 25.6-25.6l325.12 0c15.36 0 25.6 10.24 25.6 25.6S998.4 307.2 985.6 307.2z" p-id="15515" fill="#ffffff"></path><path d="M985.6 486.4 701.44 486.4c-15.36 0-25.6-10.24-25.6-25.6s10.24-25.6 25.6-25.6l284.16 0c15.36 0 25.6 10.24 25.6 25.6S998.4 486.4 985.6 486.4z" p-id="15516" fill="#ffffff"></path><path d="M985.6 691.2l-202.24 0c-15.36 0-25.6-10.24-25.6-25.6s10.24-25.6 25.6-25.6l202.24 0c15.36 0 25.6 10.24 25.6 25.6S998.4 691.2 985.6 691.2z" p-id="15517" fill="#ffffff"></path></svg>