<?xml version="1.0" encoding="utf-8"?>
<!-- Generator: Adobe Illustrator 21.0.0, SVG Export Plug-In . SVG Version: 6.00 Build 0)  -->
<svg version="1.1" id="图层_1" xmlns="http://www.w3.org/2000/svg" xmlns:xlink="http://www.w3.org/1999/xlink" x="0px" y="0px"
	 viewBox="0 0 382.2 67.8" style="enable-background:new 0 0 382.2 67.8;" xml:space="preserve">
<style type="text/css">
	.st0{fill:#F39800;}
</style>
<g>
	<path class="st0" d="M322.4,39.1c0,0-1,8-6.3,16.3c0,0,2.7,1,4.4,1.1c0,0,3.8-3.8,7.2-10.2c17.7,8.7,40.1,9.9,40.1,9.9
		s0.9-1.2,1.6-3.3c0.7-2.1,0.8-3.7,0.8-3.7C337.5,49.2,322.4,39.1,322.4,39.1C322.4,39.1,322.4,39.1,322.4,39.1z"/>
	<path class="st0" d="M365.1,41.1c2.9-2.5,5.2-5.9,5.2-10.1c0-4.2,0-14.5,0-17.9c0-4.3-4.7-5.1-6.9-5.1c-0.8,0-2.1,0-3.6,0
		c0,0,0,0,0,0c-3.5,0-5.8,0-5.8,0s-0.2,0.6-0.2,1.6c0,1,0.2,1.7,0.2,1.7s3.1,0,5.8,0c0,0,0,0,0,0c0.1,0,1.3,0,1.4,0
		c2.5,0,2.9,1,2.9,3.3c0,1.8,0,10.5,0,16.9c0,2.7-0.9,4.8-2.2,6.5c-1.3-1.7-2.2-3.8-2.2-6.3c0-6.1,0-15.3,0-17.4
		c0,0-1.5-0.3-3.2-0.3c-1.8,0-3.1,0.3-3.1,0.3c0,3.8,0,13.4,0,17c0,3.9,2.2,7.1,5.1,9.7c-2.7,1.8-5.4,2.5-5.4,2.5s0.2,0.8,0.5,1.5
		c0.4,0.7,0.9,1.3,0.9,1.3c2.1-0.3,4.8-1.3,7.3-2.8c3.2,2.1,6.4,3.4,8,3.8c0,0,0.4-0.7,0.7-1.5c0.3-0.8,0.4-1.6,0.4-1.6
		S368,43.2,365.1,41.1z"/>
	<path class="st0" d="M319.2,26.3c0,0,0,0.8,0.2,2.1c0.2,1.4,0.6,2.9,0.6,2.9c1.1-0.1,2.2-0.4,3.4-0.7c0,1.2,0,2.1,0,2.3
		c0,3.5,4.3,6.3,8.3,7.2c0,0,1.1-1.6,1.3-2.8c0,0-3.4-1.5-3.4-4.8c0-0.5,0-2.1,0-4.3c2.4-1.1,4.1-2.1,4.1-2.1s0-0.6-0.1-1.3
		c-0.2-0.8-0.4-1.1-0.4-1.1c-1,0.3-2.2,0.6-3.5,0.9c0-1.8,0-3.8,0-5.7c2.4-1,4.1-1.9,4.1-1.9s0-0.6-0.1-1.3
		c-0.2-0.8-0.4-1.1-0.4-1.1c-0.9,0.3-2.2,0.6-3.5,0.8c0-3.7,0-6.8,0-7.6c0,0-1.2-0.3-3.1-0.3s-3.1,0.3-3.1,0.3c0,0.9,0,4.4,0,8.6
		c-2.3,0.3-4.1,0.5-4.1,0.5s0,0.8,0.2,2.1c0.2,1.4,0.6,2.9,0.6,2.9c1.1-0.1,2.2-0.4,3.4-0.7c0,1.6,0,3.2,0,4.6
		C320.9,26.1,319.2,26.3,319.2,26.3z"/>
	<path class="st0" d="M290.1,37.7c-0.1-1.2,0.5-2.3,2.2-2.9c3.1-1.2,8.7-0.4,8.7,2.5c0,2.2,0,6.3,0,6.3s1.6,0.8,3.5,1.4
		c1.9,0.6,4.6,1.2,4.6,1.2s0-8.1,0-10.5c0-3.7-8.8-5.1-13-5.1c-3.5,0-6.6,1-8.5,1.9c-2.1,1.1-3.6,2.4-3.9,5.1
		c-0.4,2.4-2.6,6.2-11.3,9.3c-6.7,2.4-10.5,2.5-10.5,2.5s0.4,1.8,1.3,3.1c0.8,1.4,2.1,2.7,2.1,2.7s15.1-3,21.7-9.8
		c6.8,6.6,21.5,9.8,21.5,9.8s1.3-1.3,2.1-2.7c0.8-1.4,1.3-3.1,1.3-3.1s-3.7-0.1-10.5-2.5C292.2,43.6,290.3,39.6,290.1,37.7z"/>
	<path class="st0" d="M272.9,38.1c0-3,2.6-3.9,6.5-5.3c13.1-4.6,15.4-9.6,16.7-12.3c1.1-2.3,1.5-7,1.2-9.5c0.4,0,0.7,0,0.9,0
		c2.5,0,3,1.4,3,3.1c0,0.8,0,4.8,0,5.7c0,3-4,5.2-6.8,6.5c0,0,0.2,0.6,0.7,1.3c0.4,0.7,0.9,1.1,0.9,1.1s13-1.6,13-8.9
		c0-2.5,0-5,0-6.2c0-3.8-1.8-5.9-5.9-5.9c-4.1,0-15.6,0-15.6,0s-0.2,0.6-0.2,1.6c0,1,0.2,1.7,0.2,1.7s1.5,0,3.3,0
		c0.2,1.9,0.8,10.4-5,13.9c-6.3,3.8-14,4.7-16.7,5.9c-3.1,1.4-4.6,2.5-4.6,5c0,2.2,0,9.7,0,9.7s4.8-0.7,8.2-2.3
		C272.9,43.3,272.9,39.8,272.9,38.1z"/>
	<path class="st0" d="M273.2,26.2c7.6,0,11-2.8,11-2.8s0,0,0,0c0.8-0.6,1.1-1.4,1.2-3.3c0-1.2-0.3-2.3-0.3-2.3
		c-2.1-0.2-3.7,0.8-3.7,0.8c0,0.4,0.1,1.5-0.2,2.1c-0.2,0.4-0.5,0.7-1.1,1c-2,0.8-4.4,0.6-5.1,0.4c-1.1-0.2-2.3-0.3-2.3-2.4
		c0-2.3,0-2.1,0-3.9s0.8-2.9,3.6-3.4c6.3-1.2,8.9-3.1,8.9-3.1s-0.5-1-0.9-1.6c-0.4-0.6-1-1.3-1-1.3c-3.9,1.5-8.1,1.9-13.3,2.8
		c-4.4,0.8-5.2,3.1-5.2,4.8s0,2.9,0,7.5S271.1,26.2,273.2,26.2z"/>
	<path class="st0" d="M341.5,11.2L341.5,11.2c0.2,0,0.3,0,0.5,0c2.5,0,3.1,1,3.1,3.3c0,0.5,0,2.2,0,4.6h-3.7c0-2.3,0-4.2,0-5
		c0,0-1.3-0.3-3-0.3c-1.7,0-2.9,0.3-2.9,0.3c0,3.7,0,10.9,0,14.8c0,0,0,0.1,0,0.1c0,1.2,0,4.7,0,6.4c0,2.6,2,6.3,9.6,4.5
		c0,1.7,0,3.2,0,4.2c0,0,1.1,0.5,2.9,0.8c1.7,0.3,3.1,0.4,3.1,0.4c0-4.2,0-28.8,0-32.3c0-4.3-4.4-5.1-6.6-5.1c-0.3,0-0.1,0-2.9,0v0
		c-3.7,0-6.9,0-6.9,0s-0.2,0.6-0.2,1.6c0,1,0.2,1.7,0.2,1.7S338.4,11.2,341.5,11.2z M345.1,22.4c0,1.6,0,3.3,0,5.1h-3.7
		c0-1.6,0-3.4,0-5.1H345.1z M341.4,34.8c0-1,0-2.6,0-3.9h3.7c0,1.9,0,3.9,0,5.7C342.8,36.9,341.4,36.3,341.4,34.8z"/>
</g>
<path class="st0" d="M15,13.9c0.5-0.1,1-0.1,1.6-0.2c0.6,0,1.2-0.1,1.7-0.1c0.5,0,1.1,0,1.8,0.1c0.6,0,1.2,0.1,1.6,0.2l10.9,25.3
	l10.9-25.3c0.4-0.1,0.9-0.1,1.5-0.2c0.6,0,1.2-0.1,1.7-0.1c0.5,0,1.1,0,1.7,0.1c0.6,0,1.2,0.1,1.6,0.2l2,40.4
	c-0.5,0.1-0.9,0.1-1.4,0.2c-0.5,0-1,0.1-1.5,0.1c-0.5,0-1,0-1.5-0.1c-0.5,0-0.9-0.1-1.4-0.2l-1.3-31.4l-10.3,23
	c-0.8,0.1-1.6,0.2-2.4,0.2c-0.7,0-1.5-0.1-2.2-0.2L20,22.7l-1.3,31.6c-0.4,0.1-0.9,0.1-1.3,0.2c-0.5,0-0.9,0.1-1.3,0.1
	c-0.5,0-1,0-1.5-0.1c-0.5,0-0.9-0.1-1.3-0.2L15,13.9z"/>
<path class="st0" d="M89.1,25.5c0.4-0.1,0.8-0.1,1.2-0.2c0.4,0,0.8-0.1,1.2-0.1c0.4,0,0.9,0,1.3,0.1c0.4,0,0.8,0.1,1.2,0.2
	c0.1,0.6,0.2,1.3,0.4,2.2c0.1,0.9,0.2,1.7,0.2,2.3c0.8-1.3,1.9-2.4,3.2-3.3c1.3-0.9,3.1-1.4,5.2-1.4c0.3,0,0.6,0,1,0
	c0.3,0,0.6,0,0.8,0.1c0.1,0.3,0.1,0.7,0.2,1.1c0,0.4,0.1,0.8,0.1,1.2c0,0.4,0,0.9-0.1,1.4c-0.1,0.5-0.1,1-0.2,1.4
	c-0.3-0.1-0.6-0.1-1-0.1c-0.3,0-0.6,0-0.8,0c-1.1,0-2.1,0.1-3,0.4c-1,0.3-1.8,0.8-2.6,1.5C96.6,33,96,34,95.5,35.2
	c-0.4,1.2-0.7,2.8-0.7,4.8v14.3c-0.4,0.1-0.9,0.1-1.4,0.2c-0.5,0-1,0.1-1.4,0.1c-0.4,0-0.9,0-1.4-0.1c-0.5,0-1-0.1-1.5-0.2V25.5z"/>
<path class="st0" d="M111.6,41.3c0.1,3.1,0.9,5.4,2.5,6.9c1.6,1.5,4,2.2,7.2,2.2c2.8,0,5.4-0.5,7.9-1.4c0.3,0.6,0.6,1.2,0.8,2
	c0.2,0.8,0.3,1.6,0.4,2.4c-1.3,0.5-2.7,0.9-4.2,1.2c-1.5,0.3-3.2,0.4-5.1,0.4c-2.7,0-5.1-0.4-7-1.1c-2-0.7-3.6-1.8-4.8-3.1
	c-1.3-1.3-2.2-2.9-2.8-4.7c-0.6-1.8-0.9-3.8-0.9-6c0-2.1,0.3-4.1,0.8-6c0.6-1.9,1.4-3.5,2.6-4.8c1.2-1.4,2.6-2.5,4.4-3.3
	c1.8-0.8,3.9-1.2,6.3-1.2c2.1,0,3.9,0.3,5.4,1c1.6,0.7,2.9,1.6,3.9,2.8c1.1,1.2,1.9,2.6,2.4,4.2c0.5,1.6,0.8,3.4,0.8,5.3
	c0,0.5,0,1.1-0.1,1.7c0,0.6-0.1,1.1-0.1,1.5H111.6z M126.5,37.1c0-1-0.1-2-0.4-3c-0.3-1-0.7-1.8-1.3-2.5c-0.6-0.7-1.3-1.3-2.2-1.7
	c-0.9-0.4-1.9-0.6-3.1-0.6c-2.4,0-4.2,0.7-5.5,2.1c-1.3,1.4-2,3.3-2.3,5.8H126.5z"/>
<path class="st0" d="M140.6,18.9h-10.9c-0.1-0.4-0.1-0.8-0.2-1.2c0-0.4-0.1-0.9-0.1-1.3c0-0.4,0-0.8,0.1-1.3c0-0.4,0.1-0.8,0.2-1.2
	h27.9c0.1,0.4,0.1,0.8,0.2,1.2c0,0.4,0.1,0.8,0.1,1.2c0,0.4,0,0.9-0.1,1.3c0,0.5-0.1,0.9-0.2,1.3h-10.9v35.4
	c-0.9,0.1-1.9,0.2-2.9,0.2c-1.1,0-2.1-0.1-3-0.2V18.9z"/>
<path class="st0" d="M154.5,25.5c0.4-0.1,0.8-0.1,1.2-0.2c0.4,0,0.8-0.1,1.2-0.1c0.4,0,0.9,0,1.3,0.1c0.4,0,0.8,0.1,1.2,0.2
	c0.1,0.6,0.2,1.3,0.4,2.2c0.1,0.9,0.2,1.7,0.2,2.3c0.8-1.3,1.9-2.4,3.2-3.3c1.3-0.9,3.1-1.4,5.2-1.4c0.3,0,0.6,0,1,0
	c0.3,0,0.6,0,0.8,0.1c0.1,0.3,0.1,0.7,0.2,1.1c0,0.4,0.1,0.8,0.1,1.2c0,0.4,0,0.9-0.1,1.4c-0.1,0.5-0.1,1-0.2,1.4
	c-0.3-0.1-0.6-0.1-1-0.1c-0.3,0-0.6,0-0.8,0c-1.1,0-2.1,0.1-3,0.4c-1,0.3-1.8,0.8-2.6,1.5c-0.8,0.7-1.4,1.7-1.8,2.9
	c-0.4,1.2-0.7,2.8-0.7,4.8v14.3c-0.4,0.1-0.9,0.1-1.4,0.2c-0.5,0-1,0.1-1.4,0.1c-0.4,0-0.9,0-1.4-0.1c-0.5,0-1-0.1-1.5-0.2V25.5z"/>
<path class="st0" d="M188.5,35.3c0-2.2-0.6-3.7-1.8-4.6c-1.2-0.9-2.9-1.3-5.1-1.3c-1.4,0-2.6,0.1-3.8,0.3c-1.2,0.2-2.4,0.5-3.5,0.8
	c-0.7-1.2-1.1-2.7-1.1-4.4c1.3-0.4,2.8-0.7,4.4-1c1.6-0.2,3.1-0.3,4.6-0.3c3.9,0,6.9,0.9,8.9,2.6c2,1.7,3,4.4,3,8.2v18
	c-1.4,0.3-3,0.6-5,0.9c-2,0.3-3.9,0.5-6,0.5c-1.9,0-3.6-0.2-5.2-0.5c-1.5-0.3-2.8-0.9-3.9-1.6c-1.1-0.7-1.9-1.7-2.5-2.9
	c-0.6-1.2-0.9-2.6-0.9-4.2c0-1.6,0.3-3,1-4.2c0.7-1.2,1.6-2.2,2.8-3c1.2-0.8,2.5-1.4,4-1.8c1.5-0.4,3.1-0.6,4.8-0.6
	c1.2,0,2.3,0,3.1,0.1c0.8,0.1,1.5,0.1,2,0.2V35.3z M188.5,40.7c-0.6-0.1-1.3-0.1-2.2-0.2c-0.9-0.1-1.7-0.1-2.3-0.1
	c-2.4,0-4.3,0.4-5.5,1.3c-1.3,0.9-1.9,2.2-1.9,3.9c0,1.1,0.2,2,0.6,2.6c0.4,0.6,1,1.1,1.6,1.5c0.6,0.3,1.4,0.5,2.1,0.6
	c0.8,0.1,1.5,0.1,2.2,0.1c0.9,0,1.8,0,2.8-0.1c1-0.1,1.8-0.2,2.5-0.4V40.7z"/>
<path class="st0" d="M217.8,13.1c0.4-0.1,0.9-0.1,1.5-0.2c0.5,0,1-0.1,1.4-0.1c0.4,0,0.9,0,1.4,0.1c0.5,0,1,0.1,1.4,0.2v40.4
	c-1.5,0.4-3.1,0.8-5,1c-1.8,0.3-3.9,0.4-6.1,0.4c-2.1,0-4.1-0.3-6-0.8c-1.9-0.5-3.5-1.3-4.9-2.5c-1.4-1.2-2.5-2.7-3.3-4.5
	c-0.8-1.8-1.2-4.1-1.2-6.8c0-2.3,0.4-4.4,1.1-6.3c0.7-1.9,1.7-3.5,3.1-4.9c1.3-1.4,2.9-2.4,4.8-3.2c1.9-0.7,3.9-1.1,6.2-1.1
	c1,0,2,0.1,3.1,0.2c1,0.1,1.9,0.3,2.7,0.6V13.1z M217.8,30.4c-0.8-0.3-1.6-0.5-2.5-0.7c-0.9-0.1-1.9-0.2-2.9-0.2
	c-1.6,0-3,0.3-4.2,0.8c-1.2,0.6-2.1,1.3-2.9,2.3c-0.8,1-1.3,2.1-1.7,3.5c-0.4,1.3-0.6,2.8-0.6,4.4c0,3.6,0.9,6.1,2.6,7.6
	c1.7,1.5,4.1,2.3,7,2.3c1,0,2,0,2.8-0.1c0.9-0.1,1.6-0.2,2.3-0.4V30.4z"/>
<path class="st0" d="M232.8,41.3c0.1,3.1,0.9,5.4,2.5,6.9c1.6,1.5,4,2.2,7.2,2.2c2.8,0,5.4-0.5,7.9-1.4c0.3,0.6,0.6,1.2,0.8,2
	c0.2,0.8,0.3,1.6,0.4,2.4c-1.3,0.5-2.7,0.9-4.2,1.2c-1.5,0.3-3.2,0.4-5.1,0.4c-2.7,0-5.1-0.4-7-1.1c-2-0.7-3.6-1.8-4.8-3.1
	c-1.3-1.3-2.2-2.9-2.8-4.7c-0.6-1.8-0.9-3.8-0.9-6c0-2.1,0.3-4.1,0.8-6c0.6-1.9,1.4-3.5,2.6-4.8c1.2-1.4,2.6-2.5,4.4-3.3
	c1.8-0.8,3.9-1.2,6.3-1.2c2.1,0,3.9,0.3,5.4,1c1.6,0.7,2.9,1.6,3.9,2.8c1.1,1.2,1.9,2.6,2.4,4.2c0.5,1.6,0.8,3.4,0.8,5.3
	c0,0.5,0,1.1-0.1,1.7c0,0.6-0.1,1.1-0.1,1.5H232.8z M247.6,37.1c0-1-0.1-2-0.4-3c-0.3-1-0.7-1.8-1.3-2.5c-0.6-0.7-1.3-1.3-2.2-1.7
	c-0.9-0.4-1.9-0.6-3.1-0.6c-2.4,0-4.2,0.7-5.5,2.1c-1.3,1.4-2,3.3-2.3,5.8H247.6z"/>
<g>
	<path class="st0" d="M69.8,40.5c5.3,0,9.5,1.4,12.4,2.9c0.7-1.8,1.1-3.7,1.4-5.6C79.2,34.7,73.2,34,69.7,34h-0.2
		c-3.4,0-9.4,0.7-13.8,3.8c0.2,1.9,0.7,3.8,1.4,5.6c2.9-1.5,7.1-2.9,12.4-2.9H69.8z"/>
	<path class="st0" d="M55.9,32.6c3.1-1.4,7.6-2.8,13.7-2.8h0.2c6.1,0,10.7,1.4,13.7,2.9c-1.5-8.2-7-11.4-13.5-11.5l0,0
		c-0.1,0-0.2,0-0.3,0c-0.1,0-0.2,0-0.3,0l0,0C62.9,21.2,57.4,24.4,55.9,32.6z"/>
	<path class="st0" d="M69.8,44.8h-0.1c-2.6,0-6.6,0.8-10.2,2.7C62.6,53,67,57,69.6,57.1l0,0c0,0,0,0,0.1,0c0,0,0,0,0.1,0l0,0
		C72.4,57,76.8,53,80,47.6C76.4,45.7,72.3,44.8,69.8,44.8z"/>
</g>
</svg>
