<?xml version="1.0" standalone="no"?><!DOCTYPE svg PUBLIC "-//W3C//DTD SVG 1.1//EN" "http://www.w3.org/Graphics/SVG/1.1/DTD/svg11.dtd"><svg t="1523887716935" class="icon" style="" viewBox="0 0 1024 1024" version="1.1" xmlns="http://www.w3.org/2000/svg" p-id="1022" xmlns:xlink="http://www.w3.org/1999/xlink" width="200" height="200"><defs><style type="text/css"></style></defs><path d="M64.54528 590.608C27.47328 681.376 21.08928 767.04 50.48128 782.368c20.464 11.52 53.696-14.064 84.384-60.08 11.504 51.136 42.176 95.888 84.368 132.96-44.736 16.608-74.144 44.736-74.144 75.424 0 51.136 79.264 93.312 176.416 93.312 88.208 0 161.072-33.232 175.136-77.984h20.464C531.15328 990.752 604.03328 1024 692.24128 1024c98.432 0 176.416-40.896 176.416-93.312 0-30.688-29.408-58.816-74.144-75.424 42.176-37.072 72.864-81.824 84.368-132.96 30.688 46.016 62.64 71.584 84.368 60.08 30.688-15.328 24.288-102.272-14.048-191.76-29.408-70.304-69.04-122.72-99.728-134.224 0-3.84 1.28-8.96 1.28-14.064 0-26.848-7.68-52.416-20.448-72.864v-5.12c0-12.784-2.56-24.288-7.68-34.512C814.96128 145.744 697.34528 0 506.88128 0S198.78528 145.744 191.10528 329.824c-5.12 10.24-7.68 21.728-7.68 34.512v5.12c-12.768 20.448-20.448 46.016-20.448 72.864v14.08c-28.112 11.488-69.024 62.624-98.432 134.208z" p-id="1023" fill="#F49900"></path></svg>