<?xml version="1.0" standalone="no"?><!DOCTYPE svg PUBLIC "-//W3C//DTD SVG 1.1//EN" "http://www.w3.org/Graphics/SVG/1.1/DTD/svg11.dtd"><svg t="1521882642006" class="icon" style="" viewBox="0 0 1024 1024" version="1.1" xmlns="http://www.w3.org/2000/svg" p-id="3211" xmlns:xlink="http://www.w3.org/1999/xlink" width="200" height="200"><defs><style type="text/css"></style></defs><path d="M946.15 503.08a302.26 302.26 0 0 0-193.9-98.33l-38-2.7 25.62-30.2c8.63-15.85 10.56-33.11 12.59-51.36l0.27-2.4 1-110.18c0-15.47-3.61-28.91-11.7-43.55l-0.18-0.33-2.33-7 0.55-1.38c3.56-8.93 4.94-15.39 4.94-23 0-20.11-10.52-38.92-31.27-55.9-19.65-16.07-48-30.23-84.25-42.07C562.16 12.62 470.4 0 377.75 0S193.35 12.62 126.01 34.62c-36.26 11.84-64.6 26-84.25 42.07-20.75 17-31.27 35.78-31.27 55.9 0 8.42 1.71 16.49 4.8 22.71l0.72 1.51-2.38 7.19-0.18 0.33c-8.09 14.67-11.7 28.1-11.7 43.61v110.39c0 18.15 6.51 36.55 18.32 51.82l1.7 2.2-6.62 11.09c-9 16.34-13.41 31.15-13.41 45.27v110.4c0 16.37 5.36 33 16.86 52.23l1.4 2.35-6.7 9c-9 16.26-13.3 31-13.3 45.09v110.37c0 45.77 38.32 88.63 107.9 120.7 70.57 32.53 165.78 50.44 268.1 50.44 42.86 0 124.7-9.24 125.52-9.33l2-0.23 1.4 1.45a301.8 301.8 0 0 0 96.91 67.33 297 297 0 0 0 119.38 24.88c166.95 0 302.77-136.51 302.77-304.31a301.38 301.38 0 0 0-77.83-206zM148.81 84C210.01 65.25 291.89 54.91 379.5 54.91c187.35 0 317.91 46.48 317.91 88.19 0 20.55-31.79 42.1-87.23 59.1C549.01 221 467.1 231.3 379.5 231.3c-187.35 0-317.91-46.48-317.91-88.19C61.58 122.55 93.38 101 148.81 84zM54.61 216.2l6.84 6.25c26.62 24.32 71.88 44.44 130.89 58.18 55.09 12.83 119.21 19.61 185.41 19.61s130.32-6.78 185.41-19.61c59-13.74 104.28-33.86 130.89-58.18l6.84-6.25v100.38c0 33.49-33.29 67.74-91.32 94-61.78 27.92-144.11 43.29-231.82 43.29s-170-15.37-231.82-43.29c-58-26.22-91.32-60.47-91.32-94V216.2z m433 302.06l-5.48 7.5A287.18 287.18 0 0 0 432.33 638c-0.51 3-1.14 6.14-1.8 9.42-1.65 8.11-3.36 16.51-3.36 24.87v4.08h-4.08c-6 0-12.54 0.44-18.91 0.87s-13.21 0.89-19.45 0.89c-87.79 0-170.43-15.37-232.68-43.29-58.6-26.27-92.2-60.52-92.2-94l-1.91-115 7.1 6.93c28.84 28.14 73.1 51.65 128 68 55.9 16.65 121.59 25.46 190 25.46 32.89 0 64.68-3.55 95.41-7z m-13.49 345.57a773 773 0 0 1-92.88 5.28c-88.79 0-171.88-12.77-234-36-58.89-22-92.66-51.25-92.66-80.27v-94.3l6.63 5.29c60.25 48.09 182.87 78 320 78 13.9 0 25.9 0 39.59-1.72l3.9-0.49 0.64 3.87c5.26 31.69 15.64 60.69 30.86 86.19l0.15 0.28c4.62 9.28 10.84 17.6 20.16 27l5.92 6z m425.69 20.91C852.86 932.29 790.01 958.48 723.01 958.48c-70 0-134.77-28.45-182.53-80.11-10.67-10.74-19.62-23.33-28.27-35.5l-0.12-0.18a252.53 252.53 0 0 1-39-135.36v-1.75c0-14.28 1.79-28.65 3.52-42.56 1.79-12.61 5.37-25.21 8.84-37.4l0.06-0.2A249 249 0 0 1 689.24 458c10.77-1.8 21.55-1.8 32-1.8h8.88c64.54 2.59 125 29.87 170.37 76.81a249.88 249.88 0 0 1 70.67 174.34c0.85 66.91-24.5 129.94-71.35 177.39z" fill="#ffffff" p-id="3212"></path><path d="M846.41 684.8a24 24 0 0 0-33.6 4.8L760.01 760V544a24 24 0 0 0-48 0v216l-52.8-70.4a24 24 0 0 0-38.4 28.8l96 128a24 24 0 0 0 38.4 0l96-128a24 24 0 0 0-4.8-33.6z" fill="#ffffff" p-id="3213"></path></svg>