<?xml version="1.0" standalone="no"?><!DOCTYPE svg PUBLIC "-//W3C//DTD SVG 1.1//EN" "http://www.w3.org/Graphics/SVG/1.1/DTD/svg11.dtd"><svg t="1522721930503" class="icon" style="" viewBox="0 0 1024 1024" version="1.1" xmlns="http://www.w3.org/2000/svg" p-id="4269" xmlns:xlink="http://www.w3.org/1999/xlink" width="200" height="200"><defs><style type="text/css"></style></defs><path d="M896.101 734.021c0 143.356-65.717 143.063-383.049 143.063-317.311 0-383.030 0.292-383.030-143.063 0-156.464 171.491-468.636 383.030-468.636 211.554 0 383.049 312.174 383.049 468.636zM514.172 332.478c-89.885 0-162.744 73.293-162.744 163.707 0 90.424 72.859 163.707 162.744 163.707 89.873 0 162.734-73.282 162.734-163.707 0.001-90.413-72.861-163.707-162.734-163.707zM173.064 452.985c66.717-107.44 182.049-222.063 339.189-222.063 157.1 0 279.926 124.047 335.593 221.112 28.769 48.168 84.011 43.069 108.093 0 15.474-32.229 63.827-302.198-443.683-302.198-513.207 0.686-460.177 278.937-442.156 302.2 31.918 48.81 92.050 23.925 102.968 0.948z" p-id="4270"></path></svg>