<?xml version="1.0" standalone="no"?><!DOCTYPE svg PUBLIC "-//W3C//DTD SVG 1.1//EN" "http://www.w3.org/Graphics/SVG/1.1/DTD/svg11.dtd"><svg t="1523887732093" class="icon" style="" viewBox="0 0 1285 1024" version="1.1" xmlns="http://www.w3.org/2000/svg" p-id="1199" xmlns:xlink="http://www.w3.org/1999/xlink" width="250.9765625" height="200"><defs><style type="text/css"></style></defs><path d="M1184.757559 820.404706c0 202.792157-93.304471 202.792157-542.880627 202.792157-449.556078 0-542.860549 0-542.860549-202.792157 0-219.698196 245.980863-659.054431 542.860549-659.054431S1184.757559 600.70651 1184.757559 820.404706zM641.876932 254.293333c-127.216941 0-229.014588 101.396078-229.014588 228.131138s101.797647 228.131137 229.014588 228.131137c127.23702 0 229.034667-101.396078 229.034666-228.131137s-101.797647-228.131137-229.034666-228.131138zM166.881481 423.273412c93.304471-152.074039 254.453961-312.621176 474.995451-312.621177s398.677333 177.433098 475.015529 312.621177c42.405647 67.604078 118.763922 59.151059 152.676392 0C1295.028304 381.028392 1362.873324 0.823216 641.876932 0.823216S-11.274441 389.481412 14.18501 423.253333c50.898824 67.604078 135.730196 33.812078 152.676392 0z" p-id="1200" fill="#F49900"></path></svg>